<svg id="e571459c-df06-4db9-891d-95a10d7a293e" data-name="Layer 1" xmlns="http://www.w3.org/2000/svg" width="865.76" height="682.89" viewBox="0 0 865.76 682.89"><path d="M66,259.51l40.45,288.76,402-144.38v-183a14.5,14.5,0,0,0-16.29-14.39Z" fill="#d1d3d4"/><path d="M66,259.51l40.45,288.76,402-144.38v-183a14.5,14.5,0,0,0-16.29-14.39Z" opacity="0.2"/><polygon points="376.47 143.93 395.88 83.33 492.99 113.63 508.46 142.49 481.5 230.5 395.88 243.53 395.88 162.8 376.47 143.93" fill="#ccc"/><polygon points="376.47 143.93 395.88 83.33 492.99 113.63 508.46 142.49 481.5 230.5 395.88 243.53 395.88 162.8 376.47 143.93" fill="#fff" opacity="0.2"/><rect x="387.41" y="184.06" width="84.94" height="6.12" transform="translate(75.87 -120.27) rotate(17.45)" opacity="0.2"/><rect x="389.24" y="191.52" width="31.98" height="3.93" transform="translate(76.64 -112.58) rotate(17.45)" opacity="0.2"/><rect x="410.63" y="207.5" width="31.98" height="3.93" transform="translate(82.42 -118.26) rotate(17.45)" opacity="0.2"/><rect x="389.36" y="209.54" width="26.6" height="3.93" transform="translate(81.93 -110.99) rotate(17.45)" opacity="0.2"/><rect x="404.91" y="221.32" width="13.92" height="3.93" transform="translate(85.88 -113.2) rotate(17.45)" opacity="0.2"/><rect x="424.81" y="227.58" width="13.92" height="3.93" transform="translate(88.68 -118.88) rotate(17.45)" opacity="0.2"/><rect x="443.47" y="233.44" width="13.92" height="3.93" transform="translate(91.29 -124.21) rotate(17.45)" opacity="0.2"/><rect x="421.33" y="223.22" width="49.77" height="3.94" transform="translate(88.03 -123.42) rotate(17.45)" opacity="0.2"/><rect x="448.34" y="218.12" width="24.13" height="3.93" transform="translate(87.16 -127.9) rotate(17.45)" opacity="0.2"/><rect x="426.27" y="205.72" width="48.33" height="3.93" transform="translate(82.98 -125.48) rotate(17.45)" opacity="0.2"/><rect x="401.95" y="129.86" width="84.94" height="6.12" transform="translate(60.29 -127.12) rotate(17.45)" opacity="0.2"/><rect x="428.91" y="146.78" width="47.3" height="3.93" transform="translate(65.41 -128.83) rotate(17.45)" opacity="0.2"/><rect x="426.64" y="152.82" width="31.98" height="3.93" transform="translate(66.76 -125.58) rotate(17.45)" opacity="0.2"/><rect x="423.67" y="163.45" width="47.3" height="3.93" transform="translate(70.17 -126.49) rotate(17.45)" opacity="0.2"/><rect x="421.83" y="166.66" width="12.66" height="3.93" transform="translate(70.25 -120.6) rotate(17.45)" opacity="0.2"/><rect x="464.69" y="163.2" width="21.99" height="3.93" transform="translate(71.4 -135.01) rotate(17.45)" opacity="0.2"/><polygon points="392.09 127.94 420.29 137.49 411.41 165.91 383.88 155.7 392.09 127.94" opacity="0.2"/><path d="M194.12,233.48l-32.18-63v-67.7H263.63l23.6,23.59V260.06l-33.57,5.11s-19.8-28.8-41.07-32.78C212.59,232.39,207.63,231.64,194.12,233.48Z" fill="#ccc"/><path d="M194.12,233.48l-32.18-63v-67.7H263.63l23.6,23.59V260.06l-33.57,5.11s-19.8-28.8-41.07-32.78C212.59,232.39,207.63,231.64,194.12,233.48Z" fill="#fff" opacity="0.2"/><rect x="181.27" y="132.92" width="85.83" height="6.96" opacity="0.2"/><rect x="181.67" y="190.41" width="85.83" height="6.96" opacity="0.2"/><rect x="212.98" y="147.61" width="48.72" height="3.76" opacity="0.2"/><rect x="212.98" y="165.71" width="48.72" height="3.76" opacity="0.2"/><rect x="212.98" y="173.7" width="13.89" height="3.76" opacity="0.2"/><rect x="232.34" y="173.7" width="13.89" height="3.76" opacity="0.2"/><rect x="254.75" y="173.7" width="13.89" height="3.76" opacity="0.2"/><rect x="212.98" y="156.12" width="33.25" height="3.76" opacity="0.2"/><rect x="253.98" y="156.12" width="16.63" height="3.76" opacity="0.2"/><rect x="179.97" y="205.77" width="42.02" height="2.33" opacity="0.2"/><rect x="186.24" y="223.38" width="35.74" height="2.33" opacity="0.2"/><rect x="230.1" y="223.38" width="40.51" height="2.33" opacity="0.2"/><rect x="234.49" y="231.02" width="11.74" height="2.33" opacity="0.2"/><rect x="253.98" y="231.02" width="11.74" height="2.33" opacity="0.2"/><rect x="214.55" y="214" width="33.42" height="2.33" opacity="0.2"/><rect x="253.9" y="214" width="17.73" height="2.33" opacity="0.2"/><rect x="229.6" y="205.77" width="42.02" height="2.33" opacity="0.2"/><path d="M35.45,195.45l71,149.89V260.76c0-8.24,6-14.46,14.19-15.67l73.48-11.61L158,162.8l-29.31-10.66Z" fill="#ccc"/><polygon points="137.38 173.46 158.03 162.8 128.72 152.14 137.38 173.46" opacity="0.2"/><polygon points="66.93 214.93 69.76 219.93 146.71 183.29 143.38 177.46 66.93 214.93" opacity="0.2"/><polygon points="100.3 214.32 102.52 217.65 146.71 197.44 144.49 193.89 100.3 214.32" opacity="0.2"/><polygon points="105.18 222.76 134.05 208.1 136.05 211.66 106.82 225.65 105.18 222.76" opacity="0.2"/><polygon points="109.18 231.2 111.15 234.75 154.02 212.73 152.48 209.66 109.18 231.2" opacity="0.2"/><polygon points="140.71 204.77 143.38 208.1 164.7 198.69 162.25 195 140.71 204.77" opacity="0.2"/><polygon points="130.64 229.84 132.19 232.39 144.15 225.77 142.49 223.15 130.64 229.84" opacity="0.2"/><polygon points="149.42 222 150.98 224.55 170.8 213.54 169.15 210.93 149.42 222" opacity="0.2"/><polygon points="91.41 266.06 168.03 229.76 170.8 234.75 93.75 272.39 91.41 266.06" opacity="0.2"/><rect x="172.37" y="148.39" width="31.33" height="29.07" opacity="0.2"/><rect x="182.69" y="214" width="24.64" height="2.33" opacity="0.2"/><rect x="250.61" y="252" width="19.99" height="2.33" opacity="0.2"/><polygon points="263.63 102.76 263.63 126.5 287.23 126.5 263.63 102.76" opacity="0.2"/><polygon points="395.88 243.53 395.88 162.8 371.73 138.65 270.61 138.65 270.61 262.44 395.88 243.53" fill="#ccc"/><rect x="280.95" y="183.19" width="29.34" height="29.34" opacity="0.2"/><rect x="290.61" y="169.46" width="84.94" height="6.12" opacity="0.2"/><polygon points="371.88 162.92 371.88 138.65 395.88 162.8 371.88 162.92" opacity="0.2"/><rect x="322.25" y="183.19" width="47.3" height="3.93" opacity="0.2"/><rect x="322.25" y="191.93" width="31.98" height="3.93" opacity="0.2"/><rect x="322.25" y="200.66" width="47.3" height="3.93" opacity="0.2"/><rect x="322.25" y="209.47" width="12.66" height="3.93" opacity="0.2"/><rect x="341.57" y="209.47" width="42.31" height="3.93" opacity="0.2"/><rect x="361.89" y="191.93" width="21.99" height="3.93" opacity="0.2"/><rect x="439.58" y="176.89" width="42.31" height="3.93" transform="translate(74.81 -129.9) rotate(17.45)" opacity="0.2"/><rect x="290.61" y="224.94" width="84.94" height="6.47" opacity="0.2"/><rect x="280.95" y="239.08" width="47.63" height="4.66" opacity="0.2"/><rect x="280.95" y="246.41" width="33.31" height="4.66" opacity="0.2"/><rect x="336.25" y="239.08" width="44.96" height="4.66" opacity="0.2"/><path d="M684.23,312.61s-1.15,52.87.6,69.71,11.84,102.62,15.77,132.42,5.65,86.9,5.65,86.9-4.51,1.14-4.51,5.07a51.49,51.49,0,0,1-.56,7.34,56.93,56.93,0,0,1-8.46,8.47c-3.4,2.25-22,6.76-19.18,11.27s47.38,2.26,47.38,2.26-14.67,6.76-23.13,8.46-5.63,9,5.07,9.58,23.69,1.7,35.54,1.7,16.93-4.51,26.51-5.07,13-.58,14.67-1.7,2.81-17.48,2.81-17.48l-2.25-16.37s11.13-58.88,6.76-98.69a485.82,485.82,0,0,1,2.84-121.73s10.9-38.09,9.16-54.91-4.61-34.7-4.61-34.7l-107.18,3.54Z" fill="#2f2e41"/><path d="M721.42,150.81s-19.64,14.86-25.25,24.95-5.91,66-6.51,81.67-6.34,36.27-6.21,45.13-.31,19.82,30.48,19.78,74.15-6.44,79.34-10.6,7.27-4.71,9.58-13.74,18.38-69.16,20-88.24,1-27.75-15.48-52.31-37.28-28.16-37.28-28.16L731.93,144.6Z" fill="#0071f2"/><polygon points="721.41 150.81 722.3 169.72 698.32 290.97 708.03 315.18 728.97 289.25 727.71 168.5 736.56 156.5 731.93 144.6 721.41 150.81" fill="#0071f2"/><polygon points="729.26 136.35 720.73 141.17 712.02 161.18 721.41 150.81 725.76 152.61 736.77 141.31 729.26 136.35" fill="#0071f2"/><polygon points="729.26 136.35 720.73 141.17 712.02 161.18 721.41 150.81 725.76 152.61 736.77 141.31 729.26 136.35" fill="#fff" opacity="0.2"/><path d="M718.31,125a23.67,23.67,0,0,0,8.28,2.59l2.38,20,36.35-28.5-1.72-21a18.66,18.66,0,0,0,5.67-13c.15-8.28-.68-13.08-4.67-14.49a23.1,23.1,0,0,1-7.1-4.36l3.12-14.34s7.76-10.76-14.89-14.75S704.1,43.41,702.4,50.56C702.4,50.56,684.56,94.36,718.31,125Z" fill="#f9b499"/><path d="M694.14,43.84s-1,5.67,18.63,11.36S743,60.14,743,60.14s-2.78,1.91-.48,3.69a13.84,13.84,0,0,0,4.8,2.34s.87,16,2.61,16.55,5-1.33,5-1.33-.46-6.2,3-8.48a16.11,16.11,0,0,1,6.64-2.4s6.06-24.83-1.57-33.21-17.55-10.7-40.87-6.89S692,41.09,694.14,43.84Z" fill="#2f2e41"/><path d="M727.47,135l-1-7.34s.31.7,4.8-1.06a49.77,49.77,0,0,0,10.46-6.82C739.93,130.35,727.47,135,727.47,135Z" fill="#f4a68e"/><polygon points="728.08 143.61 737.76 161.49 775.32 125.96 767.97 117.21 728.08 143.61" fill="#0071f2"/><polygon points="728.08 143.61 737.76 161.49 775.32 125.96 767.97 117.21 728.08 143.61" fill="#fff" opacity="0.2"/><polygon points="696.34 302.35 702.69 205.4 684.99 190.97 630.96 185.68 621.58 294.03 696.34 302.35" fill="#2f2e41"/><polygon points="696.34 302.35 702.69 205.4 684.99 190.97 630.96 185.68 621.58 294.03 696.34 302.35" fill="#fff" opacity="0.2" style="isolation:isolate"/><polygon points="702.69 205.4 684.99 190.97 689.63 208.23 702.69 205.4" fill="#2f2e41"/><path d="M689.48,225.25h0a6.13,6.13,0,0,1-6.54,5.79h0l-39.41-3.85a6.33,6.33,0,0,1-5.45-7h0a6.13,6.13,0,0,1,6.54-5.8h0L684,218.28a6.31,6.31,0,0,1,5.45,7Z" opacity="0.4"/><path d="M676.05,242.56h0a6.13,6.13,0,0,1-6.54,5.79h0L642,245.65a6.3,6.3,0,0,1-5.44-7h0a6.13,6.13,0,0,1,6.54-5.79h0l27.54,2.71A6.32,6.32,0,0,1,676.05,242.56Z" opacity="0.4"/><circle cx="628.31" cy="287.29" r="23.48" fill="#2f2e41"/><circle cx="628.31" cy="287.28" r="18.72" fill="#fff"/><polygon points="639.89 285.65 631.62 284.69 632.58 276.42 626.67 275.72 625.71 283.98 617.44 283.01 616.74 288.94 625.01 289.92 624.03 298.17 629.96 298.87 630.92 290.6 639.19 291.58 639.89 285.65" fill="#2f2e41"/><path d="M629.09,219.3s-4.51.37-5.65,3.74a9.51,9.51,0,0,0,1.14,8.65c1.51,1.88,8.65,4.14,12.42,3s4.9-4.14,2.25-6a26.85,26.85,0,0,0-7.88-3Z" fill="#f9b499"/><path d="M624.62,231.69s-1.51,4.88,1.12,7.51,9.79,3.39,12,.77-.76-5.28-.76-5.28S627.21,234,624.62,231.69Z" fill="#f9b499"/><path d="M626.84,242.68s-.37,7.88,2.63,11.27,6.39,1.51,5.64-1.51a19.06,19.06,0,0,0-2.25-5.25Z" fill="#f9b499"/><path d="M625.7,239.2a6.2,6.2,0,0,0,2.65,6c3.37,2.26,8.27,4.51,9.76,1.14a7.22,7.22,0,0,0-.37-6.39S630.21,241.85,625.7,239.2Z" fill="#f9b499"/><path d="M719.66,252s-4.68-5.07-6.79-6.77-13.57-1.69-13.57-1.69v7.2s-17.8,1.26-22.89,2.06-5.94,3.4-4.65,5.53,14,.85,14,.85l6.36.85s-9.75,2.54-12.73,2.95-8.9,0-8.9,2.07.85,3.38,5.51,3.81,12.31.41,17.38,1.7-8.46,2.07-12.29,2.07-4.14,3.39-1.7,4.24S690,278.91,690,278.91a38.8,38.8,0,0,0,9.74,3.8c6.35,1.7,2.07.85,16.1,0a89.76,89.76,0,0,0,20.36-2.95l.41-19.52-13.14-4.13Z" fill="#f9b499"/><polygon points="736.6 260.45 734.91 284.62 743.8 285.05 744.65 260.88 736.6 260.45" fill="#0071f2"/><polygon points="736.6 260.45 734.91 284.62 743.8 285.05 744.65 260.88 736.6 260.45" opacity="0.2"/><path d="M788.08,139.22c6.35,2.07,42.23,22.76,42.23,40.89S825.24,267,823.54,283s-6.78,12.73-25,12.73-45.77-.85-50.86-3a6.71,6.71,0,0,1-3.83-7.64l.79-24.24s1.28-5.94,5.52-6.79,31.72,3.06,31.72,3.06,5.09-46.2,5.94-55.1-.82-21.49,4.43-28.61" fill="#0071f2"/><path d="M106.45,548.27V260.43a16.08,16.08,0,0,1,13.71-15.91l79.57-11.88a39.92,39.92,0,0,1,29.83,7.52c8.38,6.29,18.34,15.13,24.1,25l250.07-38.05a9,9,0,0,1,10.39,8.93V489.94a13.33,13.33,0,0,1-11.29,13.17L122.43,562a13.86,13.86,0,0,1-16-13.71Z" fill="#d1d3d4"/><path d="M124.09,265.06l97.54-13.7A4.68,4.68,0,0,1,227,256v12.47a4.68,4.68,0,0,1-3.93,4.62L126.3,288.85a7.34,7.34,0,0,1-8.53-7.24v-9.28A7.35,7.35,0,0,1,124.09,265.06Z" opacity="0.2"/></svg>